<svg width="50" height="50" viewBox="0 0 50 50" fill="none" xmlns="http://www.w3.org/2000/svg">
<path d="M49.8509 14.6859C49.8095 12.612 49.4168 10.56 48.6896 8.61726C48.0621 6.94902 47.0782 5.43775 45.8066 4.18888C44.5572 2.91899 43.046 1.9367 41.3782 1.31044C39.4354 0.583876 37.3834 0.191969 35.3095 0.151378C32.6435 0.0293719 31.7917 0 25 0C18.2083 0 17.3588 0.0293719 14.6859 0.149119C12.6141 0.19205 10.5645 0.58547 8.62404 1.3127C6.9558 1.94016 5.44453 2.92402 4.19566 4.19566C2.92326 5.44435 1.93862 6.95562 1.31044 8.62404C0.584669 10.5648 0.192776 12.6144 0.151378 14.6859C0.0293719 17.3588 0 18.2106 0 25C0 31.7894 0.0293719 32.6412 0.151378 35.3073C0.192692 37.3813 0.585364 39.4332 1.3127 41.376C1.94016 43.0442 2.92402 44.5555 4.19566 45.8043C5.44448 47.076 6.95576 48.0599 8.62404 48.6873C10.5667 49.4148 12.6187 49.8074 14.6927 49.8486C17.3588 49.9706 18.2106 50 25 50C31.7894 50 32.6412 49.9706 35.3073 49.8486C37.3813 49.8074 39.4333 49.4147 41.376 48.6873C43.0367 48.0451 44.5449 47.063 45.804 45.804C47.063 44.5449 48.0451 43.0367 48.6873 41.376C49.4147 39.4333 49.8074 37.3813 49.8486 35.3073C49.9706 32.6412 50 31.7894 50 25C50 18.2106 49.9706 17.3588 49.8486 14.6927L49.8509 14.6859ZM45.3502 35.0972C45.3315 36.6827 45.0403 38.2533 44.4894 39.7402C44.0735 40.8184 43.4365 41.7976 42.6193 42.6148C41.8021 43.432 40.8229 44.069 39.7447 44.4849C38.2578 45.0358 36.6872 45.327 35.1017 45.3457C32.465 45.4654 31.6742 45.4925 25 45.4925C18.3258 45.4925 17.5441 45.4677 14.8961 45.3457C13.3105 45.3269 11.74 45.0357 10.2531 44.4849C9.16736 44.0838 8.18533 43.4445 7.37912 42.6141C6.54863 41.8079 5.90938 40.8259 5.50836 39.7402C4.9574 38.2533 4.66622 36.6827 4.64754 35.0972C4.51875 32.4672 4.5052 31.6765 4.5052 25.0023C4.5052 18.3281 4.53005 17.5463 4.6498 14.8983C4.6687 13.3128 4.95988 11.7423 5.51062 10.2553C5.91184 9.16969 6.55107 8.18769 7.38138 7.38138C8.18745 6.55077 9.16952 5.9115 10.2553 5.51062C11.7422 4.95962 13.3127 4.66844 14.8983 4.6498C17.535 4.51875 18.3258 4.5052 25 4.5052C31.6765 4.5052 32.4559 4.53005 35.1039 4.65206C36.6895 4.67078 38.26 4.96197 39.7469 5.51288C40.8326 5.9141 41.8146 6.55333 42.6209 7.38364C43.4515 8.1897 44.0908 9.17178 44.4916 10.2576C45.0428 11.7444 45.334 13.315 45.3525 14.9006C45.4722 17.5373 45.4971 18.3281 45.4971 25.0023C45.4971 31.6765 45.4722 32.4582 45.3525 35.1062L45.3502 35.0972Z" fill="url(#paint0_linear_16_37)"/>
<path d="M25 10.8135C22.1941 10.8135 19.4513 11.6455 17.1183 13.2044C14.7853 14.7632 12.967 16.9788 11.8932 19.5711C10.8195 22.1634 10.5386 25.0158 11.086 27.7678C11.6333 30.5197 12.9845 33.0475 14.9685 35.0315C16.9526 37.0156 19.4804 38.3667 22.2323 38.9141C24.9843 39.4615 27.8367 39.1806 30.429 38.1068C33.0212 37.0331 35.2369 35.2147 36.7957 32.8818C38.3546 30.5488 39.1866 27.8059 39.1866 25.0001C39.1866 21.2376 37.6919 17.6291 35.0314 14.9686C32.3709 12.3081 28.7625 10.8135 25 10.8135ZM25 34.2093C23.1786 34.2093 21.3981 33.6692 19.8836 32.6573C18.3692 31.6454 17.1888 30.2071 16.4918 28.5243C15.7948 26.8416 15.6124 24.9899 15.9677 23.2035C16.3231 21.4171 17.2001 19.7761 18.4881 18.4882C19.776 17.2003 21.4169 16.3232 23.2034 15.9678C24.9898 15.6125 26.8414 15.7949 28.5242 16.4919C30.207 17.1889 31.6453 18.3693 32.6572 19.8837C33.6691 21.3982 34.2092 23.1787 34.2092 25.0001C34.2092 27.4425 33.2389 29.7849 31.5119 31.512C29.7848 33.2391 27.4424 34.2093 25 34.2093Z" fill="url(#paint1_linear_16_37)"/>
<path d="M41.2155 11.4527C41.2155 11.9805 41.0591 12.4964 40.7659 12.9352C40.4727 13.374 40.0559 13.716 39.5684 13.918C39.0808 14.1199 38.5443 14.1728 38.0267 14.0698C37.5091 13.9668 37.0336 13.7127 36.6604 13.3395C36.2873 12.9664 36.0331 12.4909 35.9302 11.9733C35.8272 11.4557 35.8801 10.9192 36.082 10.4316C36.284 9.94405 36.626 9.52732 37.0648 9.23412C37.5036 8.94092 38.0195 8.78442 38.5472 8.78442C39.2549 8.78442 39.9336 9.06555 40.434 9.56596C40.9344 10.0664 41.2155 10.7451 41.2155 11.4527Z" fill="url(#paint2_linear_16_37)"/>
<defs>
<linearGradient id="paint0_linear_16_37" x1="4.2" y1="45.8" x2="45.8" y2="4.2" gradientUnits="userSpaceOnUse">
<stop stop-color="#FFD600"/>
<stop offset="0.5" stop-color="#FF0100"/>
<stop offset="1" stop-color="#D800B9"/>
</linearGradient>
<linearGradient id="paint1_linear_16_37" x1="14.9558" y1="35.0442" x2="35.0441" y2="14.956" gradientUnits="userSpaceOnUse">
<stop stop-color="#FF6400"/>
<stop offset="0.5" stop-color="#FF0100"/>
<stop offset="1" stop-color="#FD0056"/>
</linearGradient>
<linearGradient id="paint2_linear_16_37" x1="36.6581" y1="13.3419" x2="40.4364" y2="9.5636" gradientUnits="userSpaceOnUse">
<stop stop-color="#F30072"/>
<stop offset="1" stop-color="#E50097"/>
</linearGradient>
</defs>
</svg>
