<svg width="105" height="105" viewBox="0 0 105 105" fill="none" xmlns="http://www.w3.org/2000/svg">
<g clip-path="url(#clip0_102_198)">
<path d="M104.941 23.7125C104.98 23.8521 105 23.9961 105 24.1409V46.6395C105 47.2274 104.676 47.7703 104.15 48.0626L84.6768 58.9353V80.4841C84.6768 80.7725 84.5987 81.0558 84.4503 81.3056C84.3019 81.5554 84.0883 81.763 83.831 81.9076L43.1812 104.599C43.0881 104.65 42.9868 104.683 42.8851 104.718C42.847 104.73 42.8113 104.753 42.7711 104.763C42.4869 104.836 42.1882 104.836 41.904 104.763C41.8573 104.751 41.815 104.726 41.7707 104.71C41.6776 104.677 41.5804 104.648 41.4918 104.599L0.850254 81.9072C0.591996 81.7635 0.377402 81.5562 0.228121 81.3063C0.0788404 81.0565 0.000153957 80.7729 0 80.4841L0 12.9882C0 12.8403 0.0213281 12.6967 0.0590625 12.5575C0.0717773 12.5102 0.101309 12.4672 0.118535 12.4199C0.150117 12.334 0.180059 12.2457 0.226406 12.1657C0.257988 12.1124 0.304336 12.0695 0.34248 12.0202C0.391289 11.9545 0.435586 11.8869 0.492598 11.8292C0.541406 11.7823 0.60498 11.7473 0.659941 11.7063C0.721465 11.657 0.776016 11.6037 0.845742 11.5648H0.847793L21.1694 0.219189C21.4267 0.075582 21.7184 0 22.0153 0C22.3122 0 22.604 0.075582 22.8613 0.219189L43.1829 11.5648H43.187C43.2547 11.6061 43.3121 11.657 43.3732 11.7044C43.4282 11.7453 43.4897 11.7823 43.5381 11.8277C43.5976 11.8869 43.6398 11.9549 43.6903 12.0202C43.7263 12.0695 43.7752 12.1124 43.8047 12.1657C43.8531 12.2477 43.8806 12.334 43.9146 12.4203C43.9314 12.4672 43.961 12.5102 43.9737 12.5595C44.0126 12.6991 44.0327 12.8434 44.0331 12.9882V55.1449L60.9669 45.6898V24.1389C60.9669 23.9957 60.9882 23.8498 61.0263 23.7125C61.0411 23.6632 61.0686 23.6203 61.0854 23.5733C61.1194 23.487 61.149 23.3983 61.1953 23.3188C61.2269 23.2655 61.2732 23.2225 61.3097 23.1732C61.3602 23.1076 61.4024 23.04 61.4615 22.9823C61.5107 22.9354 61.5718 22.9004 61.6268 22.8594C61.6904 22.8101 61.7453 22.7568 61.813 22.7178H61.8151L82.1387 11.3723C82.396 11.2285 82.6877 11.1528 82.9847 11.1528C83.2816 11.1528 83.5733 11.2285 83.8306 11.3723L104.152 22.7178C104.224 22.7588 104.279 22.8101 104.343 22.857C104.395 22.8984 104.457 22.9354 104.505 22.9803C104.564 23.04 104.607 23.1076 104.657 23.1732C104.696 23.2225 104.742 23.2655 104.772 23.3188C104.82 23.3983 104.848 23.487 104.881 23.5733C104.901 23.6203 104.928 23.6632 104.941 23.7125ZM101.613 45.6901V26.9811L94.5008 30.9508L84.6763 36.4362V55.1453L101.615 45.6901H101.613ZM81.2909 79.5348V60.8125L71.6268 66.1648L44.0311 81.4375V100.335L81.2909 79.534V79.5348ZM3.38748 15.828V79.5348L40.6432 100.334V81.4395L21.1805 70.7581L21.1743 70.7541L21.1661 70.7502C21.1005 70.7132 21.0451 70.6599 20.984 70.6149C20.9307 70.5736 20.8696 70.5409 20.8232 70.4956L20.8191 70.4896C20.7642 70.4383 20.726 70.3747 20.6797 70.3174C20.637 70.2617 20.5866 70.2148 20.5525 70.1575L20.5505 70.1512C20.5123 70.0899 20.4889 70.0159 20.4615 69.9463C20.434 69.8847 20.3983 69.827 20.3811 69.7618V69.7598C20.3602 69.6819 20.3561 69.5995 20.3474 69.5196C20.3392 69.4583 20.322 69.3967 20.322 69.335V25.2836L10.4992 19.7957L3.38748 15.8304V15.828ZM22.0176 3.53703L5.08553 12.9882L22.0135 22.439L38.9431 12.9858L22.0135 3.53703H22.0176ZM30.8228 62.5192L40.6453 57.0361V15.828L33.5344 19.7981L23.7091 25.2832V66.4909L30.8228 62.5192ZM82.9845 14.6901L66.0548 24.1409L82.9845 33.5921L99.912 24.1389L82.9845 14.6901ZM81.2905 36.4362L71.466 30.9508L64.3547 26.9811V45.6901L74.1772 51.1736L81.2909 55.1453V36.4362H81.2905ZM42.3351 78.5977L67.1672 64.8507L79.5802 57.9811L62.6629 48.5363L43.1849 59.4102L25.4326 69.3207L42.3351 78.5977Z" fill="#FF2D20"/>
</g>
<defs>
<clipPath id="clip0_102_198">
<rect width="105" height="105" fill="white"/>
</clipPath>
</defs>
</svg>
