<svg width="256" height="256" viewBox="0 0 256 256" fill="none" xmlns="http://www.w3.org/2000/svg">
<g clip-path="url(#clip0_149_199)">
<path d="M196 0H60C26.8629 0 0 26.8629 0 60V196C0 229.137 26.8629 256 60 256H196C229.137 256 256 229.137 256 196V60C256 26.8629 229.137 0 196 0Z" fill="#F4F2ED"/>
<path d="M121.451 28.0542C121.021 28.0932 119.652 28.2302 118.42 28.3272C90.014 30.8882 63.406 46.2162 46.553 69.7742C37.17 82.8732 31.167 97.7312 28.9 113.47C28.099 118.964 28.001 120.587 28.001 128.035C28.001 135.484 28.099 137.107 28.901 142.6C34.335 180.156 61.061 211.711 97.307 223.402C103.798 225.494 110.64 226.921 118.421 227.781C121.452 228.113 134.55 228.113 137.581 227.781C151.012 226.295 162.39 222.972 173.612 217.243C175.332 216.364 175.665 216.129 175.43 215.934C175.274 215.816 167.942 205.982 159.145 194.096L143.153 172.493L123.113 142.835C112.087 126.53 103.016 113.196 102.937 113.196C102.859 113.177 102.781 126.354 102.742 142.444C102.683 170.616 102.664 171.75 102.312 172.414C101.804 173.372 101.413 173.763 100.591 174.194C99.966 174.506 99.418 174.565 96.466 174.565H93.084L92.184 173.998C91.6268 173.649 91.1742 173.156 90.874 172.571L90.464 171.691L90.504 132.493L90.562 93.2752L91.168 92.5122C91.481 92.1022 92.146 91.5742 92.615 91.3202C93.416 90.9292 93.729 90.8902 97.111 90.8902C101.1 90.8902 101.764 91.0462 102.801 92.1802C103.094 92.4932 113.944 108.837 126.926 128.524C140.069 148.451 153.219 168.373 166.378 188.289L182.214 212.278L183.016 211.75C190.112 207.136 197.62 200.567 203.563 193.724C216.212 179.198 224.365 161.486 227.102 142.6C227.903 137.107 228.001 135.484 228.001 128.035C228.001 120.587 227.903 118.964 227.102 113.47C221.667 75.9142 194.941 44.3602 158.695 32.6692C152.302 30.5962 145.499 29.1692 137.874 28.3092C135.997 28.1132 123.074 27.8992 121.452 28.0552L121.451 28.0542ZM162.389 88.5432C163.327 89.0122 164.09 89.9112 164.364 90.8492C164.52 91.3582 164.559 102.228 164.52 126.724L164.461 161.876L158.264 152.374L152.047 142.873V117.321C152.047 100.801 152.125 91.5142 152.242 91.0642C152.555 89.9702 153.239 89.1102 154.178 88.6012C154.979 88.1912 155.273 88.1512 158.342 88.1512C161.236 88.1512 161.744 88.1912 162.389 88.5432Z" fill="black"/>
</g>
<defs>
<clipPath id="clip0_149_199">
<rect width="256" height="256" fill="white"/>
</clipPath>
</defs>
</svg>
